<mxfile host="app.diagrams.net" modified="2024-01-24T13:28:33.377Z" agent="Mozilla/5.0 (X11; Linux x86_64) AppleWebKit/537.36 (KHTML, like Gecko) Chrome/120.0.0.0 Safari/537.36" etag="V4_1Y2qqiSGNXztdoVVZ" version="23.0.0" type="github">
  <diagram name="第 1 页" id="Yiv2DQ5oim6ke4sZhG6O">
    <mxGraphModel dx="1420" dy="1554" grid="0" gridSize="10" guides="1" tooltips="1" connect="1" arrows="1" fold="1" page="0" pageScale="1" pageWidth="827" pageHeight="1169" math="0" shadow="0">
      <root>
        <mxCell id="0" />
        <mxCell id="1" parent="0" />
        <mxCell id="wwpUY6o9mBDJSFyRUAQV-1" value="系统管理员" style="shape=umlActor;verticalLabelPosition=bottom;verticalAlign=top;html=1;outlineConnect=0;" vertex="1" parent="1">
          <mxGeometry x="-139" y="-67" width="30" height="60" as="geometry" />
        </mxCell>
        <mxCell id="wwpUY6o9mBDJSFyRUAQV-2" value="登录系统" style="ellipse;whiteSpace=wrap;html=1;" vertex="1" parent="1">
          <mxGeometry x="-49" y="-182" width="120" height="50" as="geometry" />
        </mxCell>
        <mxCell id="wwpUY6o9mBDJSFyRUAQV-3" value="添加图书信息" style="ellipse;whiteSpace=wrap;html=1;" vertex="1" parent="1">
          <mxGeometry x="-49" y="-122" width="120" height="50" as="geometry" />
        </mxCell>
        <mxCell id="wwpUY6o9mBDJSFyRUAQV-4" value="删除图书信息" style="ellipse;whiteSpace=wrap;html=1;" vertex="1" parent="1">
          <mxGeometry x="-49" y="-62" width="120" height="50" as="geometry" />
        </mxCell>
        <mxCell id="wwpUY6o9mBDJSFyRUAQV-5" value="管理用户信息" style="ellipse;whiteSpace=wrap;html=1;" vertex="1" parent="1">
          <mxGeometry x="-49" y="-2" width="120" height="50" as="geometry" />
        </mxCell>
        <mxCell id="wwpUY6o9mBDJSFyRUAQV-6" value="生成图书报表" style="ellipse;whiteSpace=wrap;html=1;" vertex="1" parent="1">
          <mxGeometry x="-49" y="58" width="120" height="50" as="geometry" />
        </mxCell>
        <mxCell id="wwpUY6o9mBDJSFyRUAQV-7" value="" style="endArrow=none;html=1;rounded=0;exitX=1;exitY=0.3333333333333333;exitDx=0;exitDy=0;exitPerimeter=0;entryX=0;entryY=0.5;entryDx=0;entryDy=0;targetPerimeterSpacing=0;startArrow=none;startFill=0;endFill=0;" edge="1" parent="1" source="wwpUY6o9mBDJSFyRUAQV-1" target="wwpUY6o9mBDJSFyRUAQV-2">
          <mxGeometry width="50" height="50" relative="1" as="geometry">
            <mxPoint x="-109" y="-82" as="sourcePoint" />
            <mxPoint x="-59" y="-132" as="targetPoint" />
          </mxGeometry>
        </mxCell>
        <mxCell id="wwpUY6o9mBDJSFyRUAQV-8" value="" style="endArrow=none;html=1;rounded=0;exitX=1;exitY=0.3333333333333333;exitDx=0;exitDy=0;exitPerimeter=0;entryX=0;entryY=0.5;entryDx=0;entryDy=0;targetPerimeterSpacing=0;startArrow=none;startFill=0;endFill=0;" edge="1" parent="1" source="wwpUY6o9mBDJSFyRUAQV-1" target="wwpUY6o9mBDJSFyRUAQV-3">
          <mxGeometry width="50" height="50" relative="1" as="geometry">
            <mxPoint x="-106" y="-51" as="sourcePoint" />
            <mxPoint x="-39" y="-147" as="targetPoint" />
          </mxGeometry>
        </mxCell>
        <mxCell id="wwpUY6o9mBDJSFyRUAQV-9" value="" style="endArrow=none;html=1;rounded=0;exitX=1;exitY=0.3333333333333333;exitDx=0;exitDy=0;exitPerimeter=0;entryX=0;entryY=0.5;entryDx=0;entryDy=0;targetPerimeterSpacing=0;startArrow=none;startFill=0;endFill=0;" edge="1" parent="1" source="wwpUY6o9mBDJSFyRUAQV-1" target="wwpUY6o9mBDJSFyRUAQV-4">
          <mxGeometry width="50" height="50" relative="1" as="geometry">
            <mxPoint x="-96" y="-41" as="sourcePoint" />
            <mxPoint x="-29" y="-137" as="targetPoint" />
          </mxGeometry>
        </mxCell>
        <mxCell id="wwpUY6o9mBDJSFyRUAQV-10" value="" style="endArrow=none;html=1;rounded=0;entryX=0;entryY=0.5;entryDx=0;entryDy=0;targetPerimeterSpacing=0;startArrow=none;startFill=0;endFill=0;exitX=1;exitY=0.3333333333333333;exitDx=0;exitDy=0;exitPerimeter=0;" edge="1" parent="1" source="wwpUY6o9mBDJSFyRUAQV-1" target="wwpUY6o9mBDJSFyRUAQV-5">
          <mxGeometry width="50" height="50" relative="1" as="geometry">
            <mxPoint x="-109" y="-42" as="sourcePoint" />
            <mxPoint x="-19" y="-127" as="targetPoint" />
          </mxGeometry>
        </mxCell>
        <mxCell id="wwpUY6o9mBDJSFyRUAQV-11" value="i" style="endArrow=open;dashed=1;html=1;dashPattern=1 3;strokeWidth=2;rounded=0;exitX=1;exitY=0.5;exitDx=0;exitDy=0;entryX=0;entryY=0.5;entryDx=0;entryDy=0;endFill=0;" edge="1" parent="1" source="wwpUY6o9mBDJSFyRUAQV-3" target="wwpUY6o9mBDJSFyRUAQV-13">
          <mxGeometry width="50" height="50" relative="1" as="geometry">
            <mxPoint x="90" y="-152" as="sourcePoint" />
            <mxPoint x="140" y="-202" as="targetPoint" />
          </mxGeometry>
        </mxCell>
        <mxCell id="wwpUY6o9mBDJSFyRUAQV-12" value="&amp;lt;&amp;lt;include&amp;gt;&amp;gt;" style="edgeLabel;html=1;align=center;verticalAlign=middle;resizable=0;points=[];" vertex="1" connectable="0" parent="wwpUY6o9mBDJSFyRUAQV-11">
          <mxGeometry x="0.0123" y="-2" relative="1" as="geometry">
            <mxPoint as="offset" />
          </mxGeometry>
        </mxCell>
        <mxCell id="wwpUY6o9mBDJSFyRUAQV-13" value="保存图书信息" style="ellipse;whiteSpace=wrap;html=1;" vertex="1" parent="1">
          <mxGeometry x="191" y="-122" width="120" height="50" as="geometry" />
        </mxCell>
        <mxCell id="wwpUY6o9mBDJSFyRUAQV-14" value="保存用户信息" style="ellipse;whiteSpace=wrap;html=1;" vertex="1" parent="1">
          <mxGeometry x="191" y="-2" width="120" height="50" as="geometry" />
        </mxCell>
        <mxCell id="wwpUY6o9mBDJSFyRUAQV-15" value="i" style="endArrow=open;dashed=1;html=1;dashPattern=1 3;strokeWidth=2;rounded=0;exitX=1;exitY=0.5;exitDx=0;exitDy=0;entryX=0;entryY=0.5;entryDx=0;entryDy=0;endFill=0;" edge="1" parent="1" source="wwpUY6o9mBDJSFyRUAQV-5" target="wwpUY6o9mBDJSFyRUAQV-14">
          <mxGeometry width="50" height="50" relative="1" as="geometry">
            <mxPoint x="81" y="-13" as="sourcePoint" />
            <mxPoint x="201" y="-13" as="targetPoint" />
          </mxGeometry>
        </mxCell>
        <mxCell id="wwpUY6o9mBDJSFyRUAQV-16" value="&amp;lt;&amp;lt;include&amp;gt;&amp;gt;" style="edgeLabel;html=1;align=center;verticalAlign=middle;resizable=0;points=[];" vertex="1" connectable="0" parent="wwpUY6o9mBDJSFyRUAQV-15">
          <mxGeometry x="0.0123" y="-2" relative="1" as="geometry">
            <mxPoint as="offset" />
          </mxGeometry>
        </mxCell>
        <mxCell id="wwpUY6o9mBDJSFyRUAQV-17" value="" style="endArrow=none;html=1;rounded=0;entryX=0;entryY=0.5;entryDx=0;entryDy=0;targetPerimeterSpacing=0;startArrow=none;startFill=0;endFill=0;exitX=1;exitY=0.3333333333333333;exitDx=0;exitDy=0;exitPerimeter=0;" edge="1" parent="1" target="wwpUY6o9mBDJSFyRUAQV-6">
          <mxGeometry width="50" height="50" relative="1" as="geometry">
            <mxPoint x="-99" y="-37" as="sourcePoint" />
            <mxPoint x="-39" y="93" as="targetPoint" />
          </mxGeometry>
        </mxCell>
      </root>
    </mxGraphModel>
  </diagram>
</mxfile>
